<?xml version="1.0" encoding="UTF-8" standalone="no"?>
<!-- Created with Inkscape (http://www.inkscape.org/) -->

<svg
   width="243"
   height="243"
   viewBox="0 0 64.293751 64.293751"
   version="1.1"
   id="svg5"
   inkscape:version="1.1.2 (b8e25be833, 2022-02-05)"
   sodipodi:docname="piece.svg"
   xmlns:inkscape="http://www.inkscape.org/namespaces/inkscape"
   xmlns:sodipodi="http://sodipodi.sourceforge.net/DTD/sodipodi-0.dtd"
   xmlns="http://www.w3.org/2000/svg"
   xmlns:svg="http://www.w3.org/2000/svg">
  <sodipodi:namedview
     id="namedview7"
     pagecolor="#ffffff"
     bordercolor="#666666"
     borderopacity="1.0"
     inkscape:pageshadow="2"
     inkscape:pageopacity="0.0"
     inkscape:pagecheckerboard="false"
     inkscape:document-units="mm"
     showgrid="false"
     inkscape:zoom="2.0938813"
     inkscape:cx="157.60206"
     inkscape:cy="176.22776"
     inkscape:window-width="1920"
     inkscape:window-height="1017"
     inkscape:window-x="-8"
     inkscape:window-y="-8"
     inkscape:window-maximized="1"
     inkscape:current-layer="layer1"
     fit-margin-top="0"
     fit-margin-left="0"
     fit-margin-right="0"
     fit-margin-bottom="0"
     units="px"
     lock-margins="false" />
  <defs
     id="defs2" />
  <g
     inkscape:label="레이어 1"
     inkscape:groupmode="layer"
     id="layer1"
     transform="translate(0.2645835,0.2645835)">
    <g
       id="piece_def"
       style="stroke:#000000;stroke-opacity:1;fill:#feff8c;fill-opacity:1">
      <rect
         style="fill:#feff8c;stroke:#000000;stroke-width:0.529167;stroke-linecap:round;stroke-miterlimit:4;stroke-dasharray:none;stroke-opacity:1;paint-order:stroke fill markers;fill-opacity:1"
         id="rect846"
         width="52.916668"
         height="52.916668"
         x="5.2916665"
         y="5.2916665"
         ry="5.2916665"
         rx="5.2916665" />
      <circle
         style="fill:#feff8c;stroke:#000000;stroke-width:0.529167;stroke-linecap:round;stroke-miterlimit:4;stroke-dasharray:none;stroke-opacity:1;paint-order:stroke fill markers;fill-opacity:1"
         id="path1276"
         cx="31.75"
         cy="2.6458333"
         r="2.6458333" />
      <circle
         style="fill:#feff8c;stroke:#000000;stroke-width:0.529167;stroke-linecap:round;stroke-miterlimit:4;stroke-dasharray:none;stroke-opacity:1;paint-order:stroke fill markers;fill-opacity:1"
         id="path1276-6"
         cx="2.6458333"
         cy="31.75"
         r="2.6458333" />
      <circle
         style="fill:#feff8c;stroke:#000000;stroke-width:0.529167;stroke-linecap:round;stroke-miterlimit:4;stroke-dasharray:none;stroke-opacity:1;paint-order:stroke fill markers;fill-opacity:1"
         id="path1276-6-1"
         cx="61.118752"
         cy="32.014584"
         r="2.6458333" />
      <circle
         style="fill:#feff8c;stroke:#000000;stroke-width:0.529167;stroke-linecap:round;stroke-miterlimit:4;stroke-dasharray:none;stroke-opacity:1;paint-order:stroke fill markers;fill-opacity:1"
         id="path1276-6-1-7"
         cx="32.014584"
         cy="61.118752"
         r="2.6458333" />
    </g>
    <g
       id="piece_1111"
       transform="translate(9.5520024,32.170486)">
      <path
         id="piece_1111_path"
         style="fill:#fe998c;fill-opacity:1;stroke:#000000;stroke-width:0.529167;stroke-linecap:round;paint-order:stroke fill markers"
         d="m 34.660417,61.118752 a 2.6458333,2.6458333 0 0 1 -2.645833,2.645833 2.6458333,2.6458333 0 0 1 -2.645834,-2.645833 2.6458333,2.6458333 0 0 1 2.645834,-2.645834 2.6458333,2.6458333 0 0 1 2.645833,2.645834 z M 63.764585,32.014584 a 2.6458333,2.6458333 0 0 1 -2.645833,2.645833 2.6458333,2.6458333 0 0 1 -2.645834,-2.645833 2.6458333,2.6458333 0 0 1 2.645834,-2.645834 2.6458333,2.6458333 0 0 1 2.645833,2.645834 z M 5.2916665,31.75 A 2.6458333,2.6458333 0 0 1 2.6458333,34.395833 2.6458333,2.6458333 0 0 1 0,31.75 2.6458333,2.6458333 0 0 1 2.6458333,29.104167 2.6458333,2.6458333 0 0 1 5.2916665,31.75 Z M 34.395833,2.6458333 A 2.6458333,2.6458333 0 0 1 31.75,5.2916665 2.6458333,2.6458333 0 0 1 29.104167,2.6458333 2.6458333,2.6458333 0 0 1 31.75,0 2.6458333,2.6458333 0 0 1 34.395833,2.6458333 Z m -23.8125,2.6458332 h 42.333335 c 2.931583,0 5.291666,2.3600833 5.291666,5.2916665 v 42.333335 c 0,2.931583 -2.360083,5.291666 -5.291666,5.291666 H 10.583333 c -2.9315832,0 -5.2916665,-2.360083 -5.2916665,-5.291666 V 10.583333 c 0,-2.9315832 2.3600833,-5.2916665 5.2916665,-5.2916665 z" />
    </g>
  </g>
</svg>
